<svg width="512" height="512" viewBox="0 0 512 512" fill="none" xmlns="http://www.w3.org/2000/svg">
<mask id="mask0_63_16" style="mask-type:luminance" maskUnits="userSpaceOnUse" x="0" y="0" width="512" height="512">
<path d="M512 0H0V512H512V0Z" fill="white"/>
</mask>
<g mask="url(#mask0_63_16)">
<mask id="mask1_63_16" style="mask-type:luminance" maskUnits="userSpaceOnUse" x="0" y="0" width="512" height="512">
<path d="M512 0H0V512H512V0Z" fill="white"/>
</mask>
<g mask="url(#mask1_63_16)">
<path d="M274.431 3.33815C270.314 1.15131 265.645 0 260.893 0C256.14 0 251.471 1.15131 247.356 3.33815L118.695 72.6173L370.402 207.935V481.912L498.734 412.834C502.788 410.657 506.155 407.539 508.494 403.789C510.828 400.034 512.055 395.79 512.05 391.464V131.667L274.431 3.33815Z" fill="black"/>
<path d="M118.865 145.339L0 208.237L187.102 308.612V511.995L305.747 449.198C308.76 447.598 311.262 445.292 313.002 442.519C314.741 439.743 315.654 436.597 315.653 433.396V240.244L139.556 145.339C136.434 143.606 132.857 142.69 129.211 142.69C125.564 142.69 121.987 143.606 118.865 145.339Z" fill="black"/>
<path d="M130.294 474.006V336.865L2.84375 405.435L130.294 474.006Z" fill="black"/>
</g>
</g>
</svg>
