<svg width="2311" height="700" viewBox="0 0 2311 700" fill="none" xmlns="http://www.w3.org/2000/svg">
<rect x="1610" y="100" width="200" height="600" fill="black"/>
<rect x="2111" y="100" width="200" height="215" fill="black"/>
<rect x="2111" y="385" width="200" height="215" fill="black"/>
<rect x="2211" y="282" width="140" height="601" transform="rotate(90 2211 282)" fill="black"/>
<rect x="2211" y="2.62705e-05" width="200" height="601" transform="rotate(90 2211 2.62705e-05)" fill="black"/>
<rect x="2211" y="500" width="200" height="601" transform="rotate(90 2211 500)" fill="black"/>
<rect x="1.48619e-05" y="100" width="200" height="600" fill="black"/>
<rect x="501" y="100" width="200" height="215" fill="black"/>
<rect x="501" y="385" width="200" height="215" fill="black"/>
<rect x="601" y="282" width="140" height="601" transform="rotate(90 601 282)" fill="black"/>
<rect x="601" y="2.62705e-05" width="200" height="601" transform="rotate(90 601 2.62705e-05)" fill="black"/>
<rect x="601" y="500" width="200" height="601" transform="rotate(90 601 500)" fill="black"/>
<rect x="1306" y="100" width="200" height="215" fill="black"/>
<rect x="805" y="385" width="200" height="215" fill="black"/>
<rect x="1406" y="282" width="140" height="501" transform="rotate(90 1406 282)" fill="black"/>
<rect x="1406" y="3.06417e-05" width="200" height="601" transform="rotate(90 1406 3.06417e-05)" fill="black"/>
<rect x="1506" y="500" width="200" height="701" transform="rotate(90 1506 500)" fill="black"/>
</svg>
